<svg width="939" height="938" viewBox="0 0 939 938" fill="none" xmlns="http://www.w3.org/2000/svg">
<path d="M868.328 612.301H571.515V913.82H868.328V612.301Z" fill="#B2B2B2"/>
<path d="M572.674 612.301H275.862V913.82H572.674V612.301Z" fill="#D1D1D1"/>
<path d="M417.169 246.658L404.516 408.733L345.019 527.584H452.134L507.768 425.182L525.154 308.804L417.169 246.658Z" fill="#F7EBE7"/>
<path d="M414.175 813.148L435.714 877.397L363.37 882.901L342.797 819.641L414.175 813.148Z" fill="#FCC9A7"/>
<path d="M440.06 871.585C438.225 868.122 432.43 866.885 428.47 869.111C420.743 873.502 406.834 878.881 386.261 877.583C364.916 876.222 356.899 868.184 353.808 862.371C352.166 859.341 347.627 857.795 343.57 859.094L214.047 900.772C206.223 903.307 200.041 908.007 196.95 913.881C194.053 919.385 199.848 925.321 207.962 925.198L431.754 921.24C440.544 921.116 447.304 915.551 446.532 909.12L442.861 877.583C442.765 877.088 442.668 876.532 442.378 876.037L440.06 871.585Z" fill="#1F252A"/>
<path d="M412.919 502.478H244.954C244.954 502.478 142.668 498.83 136.583 552.566C130.498 606.303 286.583 760.03 311.02 842.15L451.458 834.73L350.331 611.435L601.844 612.363C620.485 612.425 639.03 610.693 656.609 606.798C705.578 595.914 780.337 580.331 739.577 494.006L412.919 502.478Z" fill="#092330"/>
<path d="M542.539 813.396L576.731 890.198L504.387 895.701L471.161 819.889L542.539 813.396Z" fill="#FCC9A7"/>
<path d="M581.077 884.385C579.242 880.922 573.448 879.685 569.487 881.912C561.76 886.302 547.852 891.682 527.279 890.383C505.933 889.023 497.916 880.984 494.825 875.171C493.183 872.141 488.644 870.595 484.587 871.894L355.064 913.572C347.24 916.108 341.058 920.807 337.968 926.682C335.07 932.185 340.865 938.122 348.979 937.998L576.635 934.04C585.424 933.917 592.185 928.351 591.412 921.92L583.782 890.383C583.686 889.889 583.589 889.332 583.299 888.837L581.077 884.385Z" fill="#1F252A"/>
<path d="M613.627 182.965C617.394 185.315 785.939 212.833 785.939 212.833L749.912 274.113L565.624 265.209L613.627 182.965Z" fill="#F7EBE7"/>
<path d="M544.085 197.745C544.085 197.745 434.265 223.407 417.169 246.658C423.061 279.493 441.123 311.092 470.872 338.115C507.382 371.26 552.488 428.212 544.182 502.478H861.664C861.664 502.478 844.568 293.53 750.588 213.327L544.085 197.745Z" fill="#F7EBE7"/>
<path d="M580.112 230.889C611.31 226.808 631.4 207.329 625.025 187.356L606.383 128.919L493.473 143.699L512.115 202.135C518.489 222.108 548.914 234.97 580.112 230.889Z" fill="#FCC9A7"/>
<path d="M614.111 149.326C614.111 149.326 602.23 196.693 544.664 199.538C494.246 202.011 499.075 155.324 499.075 155.324L614.111 149.326Z" fill="#F4BE9A"/>
<path d="M549.204 173.566L559.152 172.082C609.088 164.661 640.189 132.753 628.599 100.845L615.462 64.4233C603.872 32.4534 554.033 12.5418 504.194 19.9623L494.246 21.4464C444.31 28.8669 413.209 60.7749 424.799 92.6829L437.936 129.105C449.526 161.075 499.365 180.986 549.204 173.566Z" fill="#FCC9A7"/>
<path d="M597.304 115.996C594.986 118.531 592.764 122.365 591.992 128.177C591.122 135.536 585.327 142.524 575.668 146.605C547.948 158.354 526.795 128.61 485.842 133.866C485.842 133.866 469.809 135.412 466.622 146.852C463.434 158.23 441.122 138.319 436.196 124.715C431.271 111.11 428.76 192.055 529.597 185.191C529.597 185.191 580.498 184.14 614.787 150.934C618.554 147.285 620.775 143.018 620.968 138.628C621.258 132.135 619.809 122.303 610.15 115.253C606.77 112.656 600.009 113.027 597.304 115.996Z" fill="#1C2226"/>
<path d="M597.401 97.6299C597.401 97.6299 553.84 88.4161 561.18 47.6654C561.18 47.6654 453.003 113.213 372.835 65.1035C372.835 65.1035 408.67 58.9816 423.448 43.275C450.395 14.6443 527.858 -24.8078 589.867 20.8281C589.867 20.8281 665.302 13.3457 643.666 87.7359L597.401 97.6299Z" fill="#1C2226"/>
<path d="M597.4 97.6299C601.554 109.008 619.326 116.119 637.098 113.522C654.967 110.863 665.977 99.4851 661.921 88.107C657.767 76.729 639.995 69.6177 622.223 72.2148C604.355 74.8738 593.247 86.2519 597.4 97.6299Z" fill="#FCC9A7"/>
<path d="M542.346 228.601L588.998 229.158L556.351 272.444L521.097 230.951L542.346 228.601Z" fill="#0C2C40"/>
<path d="M628.985 184.882L568.908 229.776L608.026 258.53L679.983 195.209C679.983 195.209 661.535 176.225 628.985 184.882Z" fill="#FFF7F3"/>
<path d="M542.346 228.601L507.768 253.583L483.428 214.626C483.428 214.626 489.803 197.126 509.7 200.465L542.346 228.601Z" fill="#FFF7F3"/>
<path d="M555.095 258.469C555.095 258.469 509.989 333.786 521.194 440.641L565.623 466.613L617.491 434.643L561.567 253.583L555.095 258.469Z" fill="#0C2C40"/>
<path d="M639.416 437.302L542.829 457.646L536.454 493.945L664.529 469.457L639.416 437.302Z" fill="#FCC9A7"/>
<path d="M557.221 481.639C557.221 502.849 530.369 520.102 497.143 520.102C464.014 520.102 437.066 502.911 437.066 481.639C437.066 460.429 463.917 443.176 497.143 443.176C530.273 443.176 557.221 460.367 557.221 481.639Z" fill="#FCC9A7"/>
<path d="M544.085 502.478H376.217C376.217 502.478 273.931 498.83 267.846 552.566C261.761 606.303 429.339 769.924 453.776 851.982L594.214 844.562L481.593 611.374L733.106 612.301C751.748 612.363 770.292 610.632 787.871 606.736C836.841 595.852 911.599 580.27 870.839 493.945L544.085 502.478Z" fill="#0C2C40"/>
<path d="M37.6782 312.452H327.923C337.485 312.452 345.695 316.719 347.723 322.717L402.391 486.833C405.096 494.872 395.437 502.478 382.591 502.478H87.5172C77.8585 502.478 69.5521 498.088 67.717 492.028L17.878 327.912C15.3667 319.873 24.9287 312.452 37.6782 312.452Z" fill="#B2B2B2"/>
<path d="M20.9685 312.452H311.117C320.679 312.452 328.889 316.719 330.917 322.717L385.585 486.833C388.29 494.872 378.728 502.478 365.785 502.478H70.8076C61.1488 502.478 52.8425 498.088 51.0073 492.028L1.16828 327.912C-1.34299 319.873 8.21902 312.452 20.9685 312.452Z" fill="#D1D1D1"/>
<path d="M394.472 488.441H592.765C598.85 488.441 603.679 491.595 603.679 495.429C603.679 499.324 598.753 502.416 592.765 502.416H390.608L394.472 488.441Z" fill="#B2B2B2"/>
<path d="M200.621 403.168C200.621 414.36 186.519 423.388 169.037 423.388C151.555 423.388 137.453 414.298 137.453 403.168C137.453 391.975 151.651 382.947 169.037 382.947C186.519 382.947 200.621 391.975 200.621 403.168Z" fill="white"/>
<path d="M716.686 271.207L822.739 380.844L568.908 438.848L603.679 486.957C603.679 486.957 820.711 471.374 925.604 419.616C935.263 414.855 940.092 407.125 938.45 399.396C933.524 374.661 912.468 314.617 822.739 229.281C804.484 211.905 768.167 206.649 739.867 217.161C710.408 228.045 700.073 252.161 716.686 271.207Z" fill="#F7EBE7"/>
<path d="M636.422 423.388L822.739 380.844L729.532 284.44" stroke="#EADDD8" stroke-width="0.7599" stroke-miterlimit="10" stroke-linecap="round" stroke-linejoin="round"/>
<path d="M510.279 387.09L464.401 309.546" stroke="#EADDD8" stroke-width="0.7599" stroke-miterlimit="10" stroke-linecap="round" stroke-linejoin="round"/>
<path d="M639.417 483.68C639.417 483.68 781.979 472.24 853.84 445.897" stroke="#EADDD8" stroke-width="0.7599" stroke-miterlimit="10" stroke-linecap="round" stroke-linejoin="round"/>
</svg>
