<svg width="220" height="91" viewBox="0 0 220 91" fill="none" xmlns="http://www.w3.org/2000/svg">
<g clip-path="url(#clip0_200_11)">
<path d="M77.9243 10.5082C75.3387 13.0938 69.0833 17.2641 59.1581 15.0121C53.8201 13.8444 48.8158 13.761 45.6464 13.8444C45.563 13.8444 45.4796 13.761 45.4796 13.6776C45.7298 11.0087 45.563 7.75584 44.3953 4.41962C44.2285 3.91919 43.4778 3.83578 43.2276 4.33622C41.8097 7.25541 37.8897 14.2615 32.0513 17.0139C30.2998 17.8479 28.7985 19.0156 27.7142 20.5169C26.5465 22.1016 24.9618 23.8531 22.7933 25.5212C20.0409 27.6064 17.2885 28.6906 15.12 29.3579C13.5353 29.8583 12.868 31.6932 13.7855 33.0277C15.0366 34.946 17.1217 37.198 20.1243 38.1989C20.2911 38.2823 20.3745 38.1155 20.3745 37.9486C20.1243 37.198 19.5405 35.5299 19.6239 34.3622C19.6239 34.1954 19.7907 34.112 19.9575 34.2788C20.5413 34.7792 22.0426 35.8635 24.7116 35.8635C24.8784 35.8635 24.9618 35.6133 24.795 35.5299C24.2112 35.0295 23.2937 34.112 23.1269 32.8609C23.1269 32.6941 23.2937 32.6107 23.3771 32.6941C24.0444 33.1111 25.5457 34.0286 27.7976 34.0286C27.9644 34.0286 28.0478 33.7784 27.881 33.695C27.2972 33.2779 26.4631 32.5273 26.5465 30.9426C26.5465 30.8592 26.6299 30.7758 26.7133 30.7758C27.464 30.6924 30.8836 30.4422 34.1364 31.443C34.3032 31.5264 34.3032 31.6932 34.1364 31.7766C33.4692 32.1103 32.7185 32.4439 31.9679 32.8609C30.0495 33.9452 28.6317 35.1129 27.464 36.1971C27.1304 36.4473 26.5465 36.8644 25.7125 37.1146C24.7116 37.3648 23.7941 37.198 23.2103 36.9478C23.0435 36.8644 22.8767 37.0312 22.9601 37.198C23.2103 37.615 23.7107 38.2823 24.2946 38.5325C25.212 38.9495 23.2103 39.5334 21.6256 39.1997C20.4579 39.0329 19.2902 38.5325 18.7898 38.3657C18.623 38.2823 18.4562 38.4491 18.5396 38.6159C18.8732 39.5333 19.7907 41.8687 22.3762 42.7862C22.6265 42.8696 22.7933 42.953 23.0435 42.953C25.0452 43.37 27.2138 42.3691 28.1312 40.5342C28.1312 40.4508 28.2146 40.3674 28.2146 40.284C28.2146 40.284 29.0487 38.6993 30.8836 37.2814C32.8019 35.7801 36.6386 34.529 41.3927 34.529H41.4761C43.8949 35.9469 45.563 38.7827 45.2294 41.6185C44.9791 43.2866 44.1451 44.7045 43.311 46.039C40.8089 50.0424 34.8871 51.0433 30.6334 52.2944C27.047 53.2953 23.3771 54.2127 19.7073 54.7966C16.7047 55.297 13.7855 55.714 10.9497 57.0485C7.19644 58.9668 4.11043 61.9694 2.02529 65.6393C1.19124 67.1406 0.523994 68.8087 0.0235611 70.4768C-0.14325 71.2274 0.6074 71.8113 1.27464 71.4777C9.53179 66.807 14.7863 68.3917 29.2155 68.9755C41.9765 69.3925 47.8149 63.2205 49.3996 61.1354C49.483 60.9686 49.8167 61.1354 49.7333 61.3022C48.9826 63.9712 46.397 67.5576 44.8957 69.4759C44.5621 69.893 44.9791 70.4768 45.4796 70.31C52.9861 67.3074 57.4066 55.5472 58.4908 52.3778C58.5742 52.211 58.8245 52.211 58.8245 52.4612C59.0747 56.0476 57.5734 60.2179 56.4057 62.9703C56.1555 63.4707 56.8227 63.8878 57.1563 63.4707C69.7506 48.708 61.9105 36.781 59.8253 34.112C59.7419 33.9452 59.9087 33.7784 60.0755 33.8618C63.3283 35.3631 65.9139 39.1997 67.2484 41.7019C67.582 42.2023 68.3327 42.0355 68.3327 41.3683C68.2493 39.2831 67.8323 37.1146 66.9982 35.1963C66.331 33.7784 65.4969 32.5273 64.3292 31.443C63.1615 30.2753 61.7437 29.4413 60.2424 28.6906C59.2415 28.1902 58.2406 27.6064 57.2398 26.9391C56.7393 26.6055 56.2389 26.2719 55.8219 25.9382C55.4882 25.688 55.0712 25.4378 54.7376 25.1876C54.5708 25.0208 54.7376 24.854 54.9044 24.854C55.238 24.9374 55.5716 25.0208 55.8219 25.1042C56.3223 25.271 56.7393 25.3544 57.1563 25.5212C58.0738 25.8548 58.9079 26.1885 59.8253 26.4387C60.8262 26.7723 61.8271 27.0225 62.8279 27.2727C69.9174 29.0243 74.0043 26.9391 75.9226 25.3544C76.2562 25.0208 76.006 24.5204 75.5056 24.6038C72.0025 25.3544 66.0807 24.0199 61.8271 22.1016C58.1572 20.2667 53.1529 19.1824 51.1511 18.8488C50.9843 18.8488 50.9843 18.5152 51.1511 18.5152C53.6533 18.1815 57.1563 19.2658 59.2415 19.6828C64.3292 20.7671 69.7506 20.3501 74.9217 16.7636C77.3405 15.0955 78.4248 12.7602 78.7584 11.0921C79.0086 10.5082 78.3413 10.0912 77.9243 10.5082ZM34.2198 21.1007L34.053 21.9348C33.8862 22.5186 33.5526 23.1025 32.9687 23.3527L30.7168 24.4369C30.0495 24.7706 29.5491 23.9365 30.0495 23.4361L33.1356 20.5169C33.636 20.0165 34.3866 20.4335 34.2198 21.1007Z" fill="#C36A2D"/>
<path d="M108.5 32C117.833 32 125.5 35 131.5 41C137.167 46.6667 140 54.1667 140 63.5C140 72.8333 137.167 80.5 131.5 86.5C125.5 92.1667 117.833 95 108.5 95C99.1667 95 91.5 92.1667 85.5 86.5C79.8333 80.5 77 72.8333 77 63.5C77 54.1667 79.8333 46.6667 85.5 41C91.5 35 99.1667 32 108.5 32Z" fill="#C36A2D"/>
<path d="M105.293 15.0781C105.801 15.0781 106.402 15.0625 107.098 15.0312C107.793 15 108.246 14.9766 108.457 14.9609L108.551 16.6836L107.016 16.9531C106.969 17.3828 106.945 17.8477 106.945 18.3477L107.707 28.8359C107.723 28.9922 107.75 29.1523 107.789 29.3164C107.836 29.4727 107.875 29.6055 107.906 29.7148L108.023 30.2188L109.629 30.3711L109.512 32.1172C109.301 32.1016 108.801 32.0781 108.012 32.0469C107.223 32.0156 106.281 32 105.188 32C104.773 32 104.297 32.0156 103.758 32.0469C103.227 32.0781 102.879 32.1016 102.715 32.1172L102.598 30.5117L104.203 30.2188C104.266 29.4844 104.301 28.7812 104.309 28.1094L103.922 19.5664L99.5039 32H97.3008L93 19.5664L92.543 28.1094C92.543 28.7812 92.5742 29.4844 92.6367 30.2188L94.2773 30.3711L94.125 32.1172C93.9844 32.1016 93.6055 32.0781 92.9883 32.0469C92.3711 32.0156 91.5195 32 90.4336 32C90.0195 32 89.5508 32.0156 89.0273 32.0469C88.5039 32.0781 88.1641 32.1016 88.0078 32.1172L87.8906 30.5117L89.5195 30.2188C89.582 30.0078 89.6953 29.5469 89.8594 28.8359L90.5273 18.3477C90.5273 18.0117 90.4805 17.5547 90.3867 16.9766L88.7812 16.6836L88.8984 14.9609C89.0781 14.9766 89.4375 15 89.9766 15.0312C90.5234 15.0625 91.0117 15.0781 91.4414 15.0781H94.8281L95.3086 15.5586C95.3867 15.8477 95.5273 16.3672 95.7305 17.1172C95.9414 17.8672 96.1445 18.5547 96.3398 19.1797L98.8125 26.6914L101.496 18.8281C101.652 18.3359 101.836 17.7422 102.047 17.0469C102.258 16.3438 102.402 15.8477 102.48 15.5586L102.961 15.0781H105.293ZM128.086 23.5508C128.086 25.3398 127.73 26.9023 127.02 28.2383C126.316 29.5742 125.316 30.6133 124.02 31.3555C122.73 32.0898 121.227 32.457 119.508 32.457C117.797 32.457 116.293 32.0898 114.996 31.3555C113.707 30.6133 112.707 29.5742 111.996 28.2383C111.293 26.9023 110.941 25.3398 110.941 23.5508C110.941 21.7617 111.293 20.1953 111.996 18.8516C112.707 17.5078 113.703 16.4688 114.984 15.7344C116.273 14.9922 117.781 14.6211 119.508 14.6211C121.234 14.6211 122.742 14.9922 124.031 15.7344C125.32 16.4688 126.316 17.5078 127.02 18.8516C127.73 20.1953 128.086 21.7617 128.086 23.5508ZM115.266 23.5508C115.266 25.7773 115.613 27.4297 116.309 28.5078C117.004 29.5859 118.07 30.125 119.508 30.125C120.945 30.125 122.012 29.5859 122.707 28.5078C123.41 27.4297 123.762 25.7773 123.762 23.5508C123.762 21.3086 123.414 19.6484 122.719 18.5703C122.023 17.4922 120.953 16.9531 119.508 16.9531C118.07 16.9531 117.004 17.4922 116.309 18.5703C115.613 19.6484 115.266 21.3086 115.266 23.5508Z" fill="#C36A2D"/>
</g>
<defs>
<clipPath id="clip0_200_11">
<rect width="220" height="91" fill="white"/>
</clipPath>
</defs>
</svg>
