<svg width="826" height="666" viewBox="0 0 826 666" fill="none" xmlns="http://www.w3.org/2000/svg">
<path d="M414.101 665.361C597.685 665.361 746.51 516.415 746.51 332.68C746.51 148.946 597.685 0 414.101 0C230.517 0 81.6926 148.946 81.6926 332.68C81.6926 516.415 230.517 665.361 414.101 665.361Z" fill="#D9AD89"/>
<path d="M523.392 402.206C523.945 394.826 522.346 387.444 518.788 380.956C508.547 363.475 498.966 329.44 484.274 296.838C482.186 292.133 479.467 287.735 476.191 283.766C469.979 276.258 463.182 269.255 455.862 262.825C432.272 242.39 404.19 237.298 397.89 236.835V236.108H398.397C398.397 236.747 398.199 236.769 398.023 236.791C397.846 236.813 397.582 236.791 399.454 238.378V443.603C397.472 475.17 421.149 500.586 449.981 499.946C457.758 499.708 465.372 497.652 472.214 493.943C479.056 490.235 484.936 484.975 489.384 478.586C502.6 459.96 519.714 432.03 522.885 407.694C522.961 405.857 523.13 404.025 523.392 402.206V402.206Z" fill="black" stroke="#0D1932" stroke-width="4" stroke-miterlimit="10"/>
<path d="M424.541 229.164C405.306 233.083 387.364 241.778 372.363 254.448C362.053 263.663 352.743 273.94 344.589 285.111C342.056 288.543 339.9 292.238 338.157 296.132C324.634 326.266 314.987 356.377 305.56 372.469C301.375 379.611 300.384 388.142 301.551 397.334C304.679 422.133 323.576 451.076 338.047 470.078C342.115 475.677 347.256 480.411 353.17 484.003C359.084 487.594 365.654 489.972 372.495 490.997C403.97 495.031 430.841 468.16 430.841 434.301V230.619C428.7 230.33 426.592 229.843 424.541 229.164V229.164Z" fill="black" stroke="#0D1932" stroke-width="4" stroke-miterlimit="10"/>
<path d="M430.4 469.879H390.116L392.274 504.245H432.559L430.4 469.879Z" fill="#FD916F" stroke="#0D1932" stroke-width="4" stroke-miterlimit="10"/>
<path d="M431.876 494.634C431.876 499.263 422.911 503.01 411.877 503.01C400.842 503.01 391.239 497.5 391.239 492.87C391.239 488.241 400.82 487.646 411.877 487.646C422.933 487.646 431.876 490.027 431.876 494.634Z" fill="#FD916F" stroke="#0D1932" stroke-width="4" stroke-miterlimit="10"/>
<path d="M365.954 388.869C365.954 401.103 357.298 410.913 346.615 410.913C335.933 410.913 324.259 396.32 324.259 384.108C324.259 371.896 328.114 366.649 338.774 366.649C349.434 366.649 365.954 376.657 365.954 388.869V388.869ZM460.465 388.869C460.465 401.103 469.121 410.913 479.781 410.913C490.442 410.913 502.137 396.32 502.137 384.108C502.137 371.896 498.305 366.649 487.622 366.649C476.94 366.649 460.465 376.657 460.465 388.869V388.869Z" fill="#C17B62"/>
<path d="M490.177 353.644C490.177 415.366 455.95 477.087 413.749 477.087C371.548 477.087 337.276 415.542 337.276 353.644C337.276 291.746 371.526 254.823 413.749 254.823C455.972 254.823 490.177 291.834 490.177 353.644Z" fill="#D9AD89"/>
<path d="M524.669 398.414C524.702 398.232 524.702 398.045 524.669 397.863C524.669 396.915 524.515 395.967 524.427 394.953L524.207 392.484C523.137 382.686 521.549 372.951 519.449 363.321C502.401 287.249 486.014 254.272 473.196 243.316C468.372 239.194 450.245 229.164 435.554 226.916C433.112 226.398 430.64 226.03 428.153 225.814C427.895 225.799 427.642 225.74 427.405 225.637L416.678 220.523C415.685 220.045 414.594 219.807 413.493 219.828C412.391 219.848 411.31 220.127 410.335 220.641C409.361 221.155 408.521 221.891 407.882 222.79C407.243 223.688 406.823 224.724 406.657 225.814V225.814H406.304C406.04 225.814 407.229 223.102 407.119 223.102C407.009 223.102 405.709 225.769 405.709 225.769C328.004 236.505 302.652 318.044 301.925 393.895C301.926 394.242 302.017 394.582 302.188 394.883C302.359 395.184 302.605 395.436 302.902 395.613C303.199 395.791 303.538 395.888 303.884 395.896C304.23 395.904 304.572 395.822 304.877 395.659C372.165 359.551 363.751 353.313 440.906 360.61C460.927 362.505 470.839 360.191 488.173 366.671C507.732 373.99 519.295 386.092 523.942 402.117C524.141 400.949 524.383 399.671 524.669 398.414Z" fill="#5B6575" stroke="#0E1A32" stroke-width="4" stroke-miterlimit="10"/>
<path d="M489.693 396.562C489.693 396.562 500.287 494.965 411.37 495.317C322.453 495.67 336.792 396.562 336.792 396.562" stroke="white" stroke-width="4" stroke-miterlimit="10" stroke-linecap="round"/>
<path d="M734.704 661.547C666.8 521.483 563.698 502.393 563.698 502.393V500.63H282.961C282.961 500.63 184.067 516.06 109.621 659.541H295.208L734.704 661.547Z" fill="#5B6575" stroke="#0E1A32" stroke-width="4" stroke-miterlimit="10"/>
<path d="M263.05 623.743L163.495 607.541Z" fill="white"/>
<path d="M263.05 623.743L163.495 607.541" stroke="#0D1932" stroke-width="4" stroke-miterlimit="10" stroke-linecap="round"/>
<path d="M570.196 623.743L669.729 607.541Z" fill="white"/>
<path d="M570.196 623.743L669.729 607.541" stroke="#0D1932" stroke-width="4" stroke-miterlimit="10" stroke-linecap="round"/>
<path d="M561.694 643.097H272.94C267.5 643.097 263.028 637.983 263.028 631.722V436.153H571.583V631.722C571.583 637.983 567.134 643.097 561.694 643.097V643.097Z" fill="#59747F" stroke="black" stroke-width="4" stroke-miterlimit="10"/>
<path d="M573.39 653.832C573.431 655.205 572.929 656.538 571.993 657.541C571.056 658.545 569.761 659.137 568.39 659.189H267.345C265.974 659.137 264.679 658.545 263.743 657.541C262.806 656.538 262.304 655.205 262.346 653.832V653.832C262.346 650.856 264.548 648.453 266.751 643.097H567.751C571.033 648.453 573.28 650.856 573.28 653.832H573.39Z" fill="#606C71" stroke="black" stroke-width="4" stroke-miterlimit="10"/>
<path d="M524.317 441.112C524.317 441.112 560.901 549.941 501.719 566.76C442.536 583.58 402.185 591.427 380.887 589.201C359.588 586.974 332.673 566.76 315.868 552.168C299.062 537.575 272.852 515.553 271.376 500.762C269.9 485.971 281.75 445.984 321.638 441.09C361.526 436.197 524.317 441.112 524.317 441.112Z" fill="#5B6575"/>
<path d="M414.101 561.382C421.728 561.382 427.911 554.759 427.911 546.591C427.911 538.422 421.728 531.799 414.101 531.799C406.474 531.799 400.291 538.422 400.291 546.591C400.291 554.759 406.474 561.382 414.101 561.382Z" fill="#FD916F"/>
<path d="M238.404 218.605C237.937 218.605 237.488 218.419 237.158 218.089C236.828 217.758 236.642 217.309 236.642 216.842V208.024C236.642 207.557 236.828 207.108 237.158 206.777C237.488 206.447 237.937 206.261 238.404 206.261H259.57V197.708C255.607 197.248 251.806 195.863 248.474 193.666C245.142 191.468 242.372 188.519 240.386 185.055C240.278 184.888 240.221 184.692 240.221 184.493C240.221 184.294 240.278 184.098 240.386 183.931C242.376 180.47 245.147 177.524 248.478 175.327C251.81 173.13 255.608 171.743 259.57 171.278V149.234C259.57 148.946 259.457 148.669 259.256 148.463C259.054 148.257 258.779 148.138 258.491 148.132H211.224C210.932 148.132 210.652 148.248 210.446 148.455C210.239 148.662 210.123 148.942 210.123 149.234V226.96C210.123 227.103 210.152 227.246 210.207 227.378C210.263 227.511 210.344 227.631 210.447 227.731C210.55 227.832 210.671 227.911 210.805 227.964C210.938 228.017 211.081 228.043 211.224 228.04H258.425C258.711 228.04 258.986 227.926 259.188 227.724C259.391 227.521 259.504 227.246 259.504 226.96V218.539L238.404 218.605Z" fill="#E6E9ED"/>
<path d="M240.386 185.033C240.278 184.866 240.221 184.67 240.221 184.471C240.221 184.272 240.278 184.076 240.386 183.909C243.204 178.935 247.61 175.054 252.897 172.887V169.162C252.897 169.02 252.869 168.88 252.815 168.748C252.76 168.617 252.681 168.498 252.581 168.398C252.48 168.298 252.361 168.218 252.231 168.164C252.1 168.11 251.959 168.082 251.818 168.082H217.898C217.61 168.082 217.333 168.195 217.127 168.397C216.921 168.599 216.803 168.873 216.797 169.162V192.021C216.803 192.309 216.921 192.584 217.127 192.786C217.333 192.988 217.61 193.101 217.898 193.101H247.523C244.598 190.95 242.165 188.2 240.386 185.033V185.033Z" fill="#FB8276"/>
<path d="M262.478 197.862C258.005 197.845 253.615 196.65 249.749 194.398C245.883 192.146 242.677 188.917 240.452 185.033C240.344 184.866 240.287 184.67 240.287 184.471C240.287 184.272 240.344 184.076 240.452 183.909C242.681 180.016 245.898 176.78 249.777 174.531C253.656 172.281 258.06 171.096 262.544 171.096C267.027 171.096 271.431 172.281 275.31 174.531C279.19 176.78 282.406 180.016 284.635 183.909C284.732 184.08 284.783 184.274 284.783 184.471C284.783 184.668 284.732 184.861 284.635 185.033C282.394 188.932 279.166 192.17 275.276 194.422C271.386 196.675 266.972 197.861 262.478 197.862Z" fill="#C7FFFD"/>
<path d="M270.473 184.482C270.477 182.893 270.01 181.339 269.131 180.016C268.252 178.693 267 177.661 265.534 177.051C264.068 176.441 262.454 176.28 260.897 176.589C259.34 176.898 257.909 177.663 256.787 178.786C255.664 179.91 254.9 181.342 254.592 182.9C254.283 184.459 254.443 186.074 255.053 187.541C255.663 189.008 256.694 190.261 258.015 191.141C259.337 192.021 260.89 192.488 262.478 192.484C264.596 192.478 266.627 191.633 268.125 190.134C269.623 188.634 270.467 186.602 270.473 184.482Z" fill="#046699"/>
<path d="M262.478 176.458C261.672 176.461 260.871 176.58 260.099 176.811V177.803C260.099 179.931 260.944 181.972 262.447 183.476C263.951 184.981 265.99 185.827 268.116 185.827C268.917 185.826 269.712 185.7 270.473 185.452C270.496 185.129 270.496 184.805 270.473 184.482C270.473 182.358 269.631 180.32 268.133 178.816C266.634 177.312 264.6 176.464 262.478 176.458V176.458Z" fill="white"/>
<path d="M294.613 132.966C290.615 132.961 286.779 134.543 283.946 137.366C281.113 140.189 279.515 144.021 279.503 148.022C279.501 150.68 280.208 153.29 281.552 155.583C282.846 157.803 284.68 159.661 286.882 160.984L287.565 161.381V165.062H301.661V161.381L302.344 160.984C304.587 159.647 306.445 157.749 307.735 155.476C309.024 153.204 309.702 150.635 309.7 148.022C309.697 146.042 309.305 144.082 308.545 142.254C307.785 140.426 306.673 138.765 305.272 137.367C303.871 135.969 302.209 134.861 300.38 134.106C298.551 133.351 296.591 132.964 294.613 132.966V132.966Z" fill="#FFC502"/>
<path d="M294.525 146.104C293.754 146.104 293.014 146.411 292.469 146.957C291.924 147.502 291.618 148.242 291.618 149.014V152.563C291.618 153.335 291.924 154.075 292.469 154.62C293.014 155.166 293.754 155.473 294.525 155.473H294.701C295.47 155.467 296.207 155.159 296.751 154.614C297.295 154.07 297.603 153.333 297.608 152.563V149.014C297.603 148.244 297.295 147.507 296.751 146.963C296.207 146.418 295.47 146.11 294.701 146.104H294.525Z" fill="white"/>
<path d="M291.111 174.386V178.31C291.111 178.469 291.142 178.627 291.203 178.774C291.264 178.921 291.353 179.055 291.466 179.167C291.578 179.28 291.712 179.369 291.859 179.43C292.006 179.491 292.163 179.522 292.322 179.522H296.904C297.225 179.522 297.533 179.395 297.76 179.167C297.987 178.94 298.115 178.631 298.115 178.31V174.386H291.111Z" fill="#9EA7AF"/>
<path d="M303.115 173.46C303.118 173.588 303.095 173.716 303.047 173.835C303 173.954 302.928 174.062 302.838 174.153C302.747 174.243 302.639 174.315 302.52 174.362C302.401 174.41 302.274 174.433 302.146 174.43H287.058C286.929 174.433 286.801 174.41 286.681 174.363C286.56 174.315 286.451 174.244 286.359 174.154C286.266 174.064 286.193 173.956 286.143 173.837C286.093 173.717 286.067 173.589 286.067 173.46V166.032C286.073 165.772 286.18 165.526 286.365 165.344C286.55 165.163 286.799 165.062 287.058 165.062H302.124C302.381 165.062 302.627 165.164 302.809 165.346C302.991 165.528 303.093 165.774 303.093 166.032L303.115 173.46Z" fill="#C6A07D"/>
<path d="M238.404 218.605C237.937 218.605 237.488 218.42 237.158 218.089C236.828 217.758 236.642 217.31 236.642 216.842V208.024C236.642 207.557 236.828 207.108 237.158 206.777C237.488 206.447 237.937 206.261 238.404 206.261H289.459C290.617 206.304 291.751 206.597 292.785 207.121L301.022 211.529C301.881 211.992 301.881 212.764 301.022 213.227L292.785 217.635C291.746 218.143 290.614 218.428 289.459 218.473L238.404 218.605Z" fill="#FFC502"/>
<path d="M288.754 218.605H289.459C290.614 218.56 291.746 218.275 292.785 217.768L301.022 213.359C301.881 212.896 301.881 212.124 301.022 211.662L292.785 207.253C291.751 206.729 290.617 206.436 289.459 206.393H288.754V218.605Z" fill="#FFD5B3"/>
<path d="M295.494 216.269L301.022 213.249C301.881 212.786 301.881 212.014 301.022 211.551L295.494 208.531V216.269Z" fill="#046699"/>
<path d="M236.642 208.002V216.82C236.642 217.288 236.828 217.736 237.158 218.067C237.488 218.398 237.937 218.583 238.404 218.583H246.906V206.217H238.404C238.171 206.217 237.94 206.263 237.725 206.353C237.509 206.443 237.314 206.575 237.15 206.741C236.986 206.907 236.857 207.104 236.77 207.321C236.682 207.537 236.639 207.769 236.642 208.002V208.002Z" fill="#EF5050"/>
<path d="M310.67 143.371C310.533 142.976 310.25 142.648 309.879 142.456C309.509 142.264 309.078 142.221 308.677 142.337C308.276 142.453 307.934 142.718 307.723 143.079C307.512 143.44 307.447 143.868 307.542 144.275C308.374 147.133 308.232 150.188 307.139 152.957C306.047 155.726 304.066 158.054 301.507 159.573L300.824 159.992C300.582 160.134 300.382 160.337 300.243 160.58C300.104 160.824 300.031 161.1 300.031 161.38V163.364H296.243V156.751C297.119 156.438 297.878 155.861 298.414 155.099C298.95 154.337 299.238 153.429 299.238 152.497V148.948C299.238 148.352 299.121 147.761 298.893 147.21C298.665 146.659 298.331 146.159 297.909 145.737C297.488 145.315 296.988 144.981 296.437 144.753C295.887 144.524 295.297 144.407 294.701 144.407H294.525C293.929 144.407 293.339 144.524 292.789 144.753C292.238 144.981 291.738 145.315 291.317 145.737C290.895 146.159 290.561 146.659 290.333 147.21C290.105 147.761 289.988 148.352 289.988 148.948V152.497C289.988 153.429 290.276 154.337 290.812 155.099C291.348 155.861 292.106 156.438 292.983 156.751V163.364H289.261V161.314C289.261 161.034 289.188 160.758 289.049 160.514C288.91 160.271 288.71 160.068 288.468 159.925L287.785 159.507C285.771 158.327 284.101 156.64 282.941 154.614C281.782 152.587 281.174 150.291 281.177 147.956C281.188 145.307 281.977 142.721 283.447 140.518C284.916 138.315 287.001 136.594 289.441 135.569C291.881 134.545 294.569 134.261 297.169 134.755C299.769 135.248 302.166 136.497 304.062 138.345C304.204 138.536 304.386 138.694 304.596 138.807C304.805 138.921 305.037 138.987 305.275 139C305.512 139.014 305.75 138.976 305.972 138.888C306.193 138.8 306.392 138.665 306.556 138.491C306.719 138.318 306.843 138.111 306.918 137.885C306.992 137.659 307.017 137.419 306.989 137.182C306.961 136.945 306.882 136.717 306.757 136.515C306.632 136.312 306.464 136.139 306.264 136.008C303.379 133.18 299.567 131.494 295.535 131.263C291.503 131.032 287.523 132.272 284.335 134.753C281.146 137.234 278.964 140.788 278.193 144.755C277.422 148.723 278.115 152.836 280.142 156.332C281.554 158.752 283.545 160.782 285.935 162.24V163.629C285.5 163.845 285.134 164.178 284.877 164.591C284.621 165.004 284.483 165.479 284.481 165.965V173.394C284.481 174.084 284.755 174.746 285.242 175.233C285.73 175.721 286.391 175.995 287.08 175.995H289.481V178.2C289.481 178.572 289.555 178.941 289.698 179.284C289.841 179.628 290.05 179.94 290.315 180.203C290.579 180.465 290.892 180.672 291.237 180.813C291.581 180.953 291.95 181.024 292.322 181.021H296.904C297.276 181.024 297.645 180.953 297.989 180.813C298.334 180.672 298.647 180.465 298.911 180.203C299.176 179.94 299.385 179.628 299.528 179.284C299.671 178.941 299.745 178.572 299.745 178.2V175.995H302.146C302.835 175.995 303.496 175.721 303.983 175.233C304.471 174.746 304.745 174.084 304.745 173.394V165.965C304.742 165.479 304.605 165.004 304.349 164.591C304.092 164.178 303.726 163.845 303.291 163.629V162.24C305.681 160.782 307.672 158.752 309.084 156.332C310.213 154.38 310.936 152.22 311.208 149.981C311.481 147.742 311.297 145.471 310.67 143.305V143.371ZM293.247 149.014C293.247 148.673 293.381 148.345 293.62 148.102C293.859 147.859 294.184 147.719 294.525 147.713H294.701C295.042 147.719 295.367 147.859 295.606 148.102C295.845 148.345 295.979 148.673 295.979 149.014V152.563C295.979 152.902 295.844 153.227 295.604 153.467C295.365 153.707 295.04 153.841 294.701 153.841H294.525C294.357 153.841 294.191 153.808 294.036 153.744C293.881 153.68 293.74 153.586 293.622 153.467C293.503 153.348 293.409 153.207 293.345 153.052C293.28 152.897 293.247 152.731 293.247 152.563V149.014ZM296.485 177.935H292.741V176.061H296.485V177.935ZM301.507 172.821H287.719V166.693H301.507V172.821ZM294.613 129.351C294.827 129.351 295.039 129.309 295.237 129.227C295.434 129.145 295.614 129.025 295.765 128.873C295.917 128.722 296.037 128.542 296.119 128.344C296.201 128.146 296.243 127.934 296.243 127.72V125.031C296.243 124.598 296.071 124.183 295.765 123.877C295.46 123.571 295.045 123.399 294.613 123.399C294.181 123.399 293.766 123.571 293.46 123.877C293.155 124.183 292.983 124.598 292.983 125.031V127.72C292.983 127.934 293.025 128.146 293.107 128.344C293.189 128.542 293.309 128.722 293.46 128.873C293.612 129.025 293.791 129.145 293.989 129.227C294.187 129.309 294.399 129.351 294.613 129.351V129.351ZM284.679 130.299C284.814 130.584 285.026 130.826 285.291 130.997C285.555 131.168 285.862 131.262 286.177 131.269C286.405 131.26 286.629 131.207 286.838 131.115C287.041 131.029 287.224 130.903 287.377 130.744C287.529 130.585 287.647 130.396 287.723 130.189C287.8 129.983 287.833 129.763 287.821 129.543C287.809 129.323 287.752 129.107 287.653 128.91L286.552 126.441C286.36 126.072 286.036 125.79 285.644 125.653C285.252 125.515 284.822 125.533 284.443 125.702C284.063 125.87 283.762 126.178 283.602 126.561C283.441 126.945 283.433 127.375 283.578 127.764L284.679 130.299ZM276.045 134.046L278.072 135.854C278.364 136.129 278.751 136.279 279.151 136.273C279.38 136.269 279.605 136.218 279.814 136.123C280.022 136.028 280.209 135.892 280.362 135.722C280.621 135.405 280.75 135.002 280.726 134.594C280.701 134.186 280.524 133.801 280.23 133.517L278.226 131.71C277.9 131.424 277.475 131.278 277.043 131.302C276.61 131.327 276.204 131.521 275.913 131.842C275.655 132.159 275.526 132.562 275.55 132.97C275.575 133.378 275.751 133.762 276.045 134.046V134.046ZM271.861 142.842L274.438 143.679C274.606 143.701 274.776 143.701 274.944 143.679C275.326 143.669 275.693 143.525 275.98 143.272C276.266 143.019 276.455 142.673 276.513 142.295C276.571 141.917 276.494 141.53 276.296 141.203C276.097 140.876 275.791 140.629 275.429 140.505L272.852 139.69C272.459 139.611 272.051 139.679 271.706 139.882C271.361 140.085 271.102 140.408 270.98 140.79C270.857 141.171 270.879 141.585 271.042 141.951C271.204 142.317 271.496 142.611 271.861 142.776V142.842ZM271.398 152.629H271.64L274.327 152.343C274.757 152.298 275.151 152.085 275.423 151.75C275.695 151.416 275.824 150.987 275.781 150.557C275.731 150.126 275.514 149.731 275.176 149.459C274.838 149.187 274.407 149.059 273.975 149.102L271.288 149.411C270.89 149.474 270.529 149.683 270.275 149.997C270.022 150.311 269.894 150.707 269.916 151.11C269.938 151.514 270.108 151.894 270.394 152.179C270.68 152.463 271.061 152.632 271.464 152.651L271.398 152.629ZM273.667 158.823C273.303 159.043 273.039 159.397 272.932 159.809C272.825 160.221 272.883 160.658 273.094 161.028C273.233 161.278 273.438 161.487 273.686 161.63C273.935 161.774 274.217 161.848 274.504 161.843C274.79 161.843 275.071 161.767 275.319 161.623L277.631 160.256C277.816 160.151 277.977 160.01 278.107 159.843C278.236 159.675 278.332 159.483 278.387 159.278C278.442 159.073 278.456 158.859 278.429 158.649C278.401 158.438 278.332 158.235 278.226 158.052C278.119 157.869 277.977 157.71 277.809 157.582C277.64 157.454 277.448 157.361 277.243 157.308C277.039 157.255 276.826 157.243 276.616 157.272C276.407 157.301 276.206 157.371 276.023 157.479L273.667 158.823ZM302.476 131.026C302.685 131.119 302.909 131.172 303.137 131.181C303.45 131.178 303.756 131.085 304.017 130.913C304.279 130.741 304.486 130.497 304.613 130.211L305.714 127.742C305.801 127.548 305.848 127.339 305.854 127.126C305.86 126.914 305.825 126.703 305.749 126.504C305.673 126.305 305.559 126.124 305.413 125.969C305.267 125.815 305.093 125.691 304.899 125.604C304.705 125.517 304.496 125.469 304.284 125.463C304.072 125.457 303.86 125.493 303.662 125.569C303.463 125.644 303.282 125.759 303.128 125.905C302.973 126.05 302.849 126.225 302.762 126.419L301.661 128.888C301.573 129.082 301.524 129.291 301.518 129.504C301.511 129.717 301.547 129.929 301.623 130.128C301.698 130.326 301.813 130.508 301.959 130.663C302.106 130.817 302.281 130.941 302.476 131.026V131.026ZM310.009 136.273C310.409 136.279 310.796 136.129 311.088 135.854L313.114 134.046C313.395 133.748 313.551 133.354 313.551 132.944C313.551 132.535 313.395 132.14 313.114 131.842C312.831 131.548 312.447 131.371 312.039 131.346C311.631 131.322 311.229 131.451 310.912 131.71L308.907 133.517C308.609 133.799 308.429 134.184 308.404 134.593C308.379 135.003 308.512 135.407 308.775 135.722C308.931 135.894 309.122 136.032 309.334 136.127C309.546 136.222 309.776 136.272 310.009 136.273ZM312.74 142.621C312.846 142.947 313.053 143.231 313.329 143.433C313.606 143.635 313.939 143.744 314.282 143.746C314.45 143.767 314.62 143.767 314.788 143.746L317.343 142.908C317.568 142.863 317.781 142.77 317.968 142.637C318.155 142.504 318.312 142.333 318.428 142.134C318.545 141.936 318.618 141.716 318.643 141.488C318.668 141.259 318.645 141.028 318.574 140.809C318.504 140.591 318.389 140.389 318.235 140.218C318.082 140.047 317.894 139.911 317.684 139.818C317.474 139.724 317.247 139.677 317.018 139.677C316.788 139.678 316.561 139.727 316.352 139.822L313.797 140.637C313.4 140.769 313.069 141.049 312.872 141.418C312.676 141.787 312.628 142.218 312.74 142.621V142.621ZM317.894 149.389L315.207 149.08C314.787 149.052 314.373 149.188 314.051 149.458C313.729 149.729 313.524 150.113 313.479 150.531C313.433 150.949 313.551 151.369 313.807 151.703C314.064 152.036 314.439 152.257 314.854 152.32L317.541 152.607H317.894C318.297 152.587 318.678 152.419 318.964 152.135C319.25 151.85 319.42 151.469 319.442 151.066C319.464 150.663 319.336 150.267 319.083 149.953C318.829 149.639 318.468 149.43 318.07 149.367L317.894 149.389ZM315.537 158.823L313.225 157.479C312.856 157.3 312.435 157.267 312.043 157.386C311.652 157.504 311.319 157.765 311.111 158.118C310.903 158.47 310.835 158.888 310.921 159.288C311.006 159.688 311.239 160.042 311.573 160.278L313.907 161.645C314.28 161.839 314.712 161.881 315.115 161.764C315.518 161.646 315.86 161.378 316.07 161.014C316.28 160.65 316.342 160.22 316.243 159.812C316.143 159.404 315.891 159.05 315.537 158.823V158.823ZM226.62 160.895H243.007C243.44 160.895 243.854 160.724 244.16 160.418C244.465 160.112 244.637 159.697 244.637 159.264C244.637 158.832 244.465 158.417 244.16 158.111C243.854 157.805 243.44 157.633 243.007 157.633H226.532C226.1 157.633 225.685 157.805 225.38 158.111C225.074 158.417 224.902 158.832 224.902 159.264C224.902 159.697 225.074 160.112 225.38 160.418C225.685 160.724 226.1 160.895 226.532 160.895H226.62ZM219.021 201.808H250.694C251.091 201.762 251.457 201.571 251.723 201.272C251.988 200.974 252.135 200.588 252.135 200.188C252.135 199.788 251.988 199.402 251.723 199.103C251.457 198.805 251.091 198.614 250.694 198.568H219.021C218.793 198.541 218.562 198.563 218.342 198.632C218.123 198.701 217.921 198.816 217.749 198.969C217.577 199.122 217.439 199.31 217.345 199.52C217.251 199.73 217.202 199.958 217.202 200.188C217.202 200.418 217.251 200.646 217.345 200.856C217.439 201.066 217.577 201.253 217.749 201.406C217.921 201.559 218.123 201.674 218.342 201.744C218.562 201.813 218.793 201.835 219.021 201.808V201.808ZM272.103 184.482C272.107 182.57 271.545 180.701 270.486 179.11C269.428 177.518 267.921 176.278 266.158 175.544C264.394 174.811 262.453 174.617 260.579 174.989C258.706 175.361 256.985 176.281 255.634 177.633C254.284 178.984 253.364 180.707 252.993 182.582C252.621 184.457 252.814 186.4 253.547 188.165C254.28 189.93 255.52 191.438 257.11 192.497C258.7 193.556 260.568 194.119 262.478 194.115C265.029 194.109 267.474 193.092 269.277 191.287C271.081 189.482 272.097 187.035 272.103 184.482ZM262.478 178.089C264.109 178.092 265.677 178.72 266.86 179.843C268.044 180.966 268.753 182.499 268.843 184.129C268.579 184.151 268.314 184.151 268.05 184.129C266.416 184.126 264.845 183.495 263.661 182.368C262.477 181.24 261.769 179.701 261.685 178.067C261.949 178.051 262.215 178.059 262.478 178.089V178.089ZM256.09 184.482C256.09 183.508 256.312 182.547 256.74 181.672C257.167 180.797 257.789 180.032 258.557 179.434C258.942 181.674 260.106 183.706 261.843 185.171C263.58 186.635 265.779 187.437 268.05 187.436C267.396 188.71 266.331 189.725 265.029 190.319C263.727 190.913 262.262 191.051 260.872 190.709C259.482 190.368 258.248 189.568 257.368 188.438C256.489 187.308 256.015 185.914 256.024 184.482H256.09Z" fill="black"/>
<path d="M301.793 210.141L293.578 205.732C292.297 205.086 290.892 204.725 289.459 204.674H261.2V199.516H262.478C267.246 199.511 271.928 198.25 276.054 195.858C280.18 193.467 283.603 190.03 285.979 185.893C286.216 185.473 286.341 184.998 286.341 184.515C286.341 184.032 286.216 183.558 285.979 183.137C283.599 179.004 280.175 175.569 276.05 173.178C271.925 170.787 267.245 169.523 262.478 169.514H261.2V149.323C261.2 148.604 260.915 147.914 260.407 147.405C259.899 146.897 259.21 146.611 258.491 146.611H228.647C228.25 146.658 227.884 146.848 227.618 147.147C227.353 147.446 227.206 147.832 227.206 148.232C227.206 148.631 227.353 149.017 227.618 149.316C227.884 149.615 228.25 149.805 228.647 149.852H257.941V169.867C256.788 170.074 255.648 170.346 254.527 170.683V169.272C254.527 168.553 254.241 167.863 253.733 167.355C253.225 166.846 252.536 166.561 251.817 166.561H217.898C217.18 166.561 216.491 166.846 215.983 167.355C215.474 167.863 215.189 168.553 215.189 169.272V192.021C215.195 192.738 215.482 193.425 215.989 193.932C216.496 194.439 217.181 194.726 217.898 194.732H247.016C250.321 196.988 254.08 198.493 258.029 199.141V204.652H238.492C237.904 204.657 237.328 204.814 236.819 205.107C236.309 205.401 235.884 205.821 235.585 206.327H219.11C218.881 206.3 218.65 206.322 218.43 206.392C218.211 206.461 218.009 206.576 217.837 206.729C217.665 206.882 217.528 207.07 217.433 207.28C217.339 207.49 217.291 207.717 217.291 207.947C217.291 208.178 217.339 208.405 217.433 208.615C217.528 208.825 217.665 209.013 217.837 209.166C218.009 209.319 218.211 209.434 218.43 209.503C218.65 209.572 218.881 209.594 219.11 209.568H235.1V213.976H219.11C218.881 213.95 218.65 213.971 218.43 214.041C218.211 214.11 218.009 214.225 217.837 214.378C217.665 214.531 217.528 214.719 217.433 214.929C217.339 215.139 217.291 215.366 217.291 215.596C217.291 215.827 217.339 216.054 217.433 216.264C217.528 216.474 217.665 216.662 217.837 216.815C218.009 216.968 218.211 217.083 218.43 217.152C218.65 217.221 218.881 217.243 219.11 217.217H235.122C235.219 218.043 235.616 218.804 236.237 219.357C236.859 219.91 237.661 220.215 238.492 220.214H258.029V226.453H211.775V149.83H220.872C221.1 149.856 221.332 149.834 221.551 149.765C221.77 149.696 221.973 149.581 222.144 149.428C222.316 149.275 222.454 149.087 222.548 148.877C222.642 148.667 222.691 148.44 222.691 148.209C222.691 147.979 222.642 147.752 222.548 147.542C222.454 147.332 222.316 147.144 222.144 146.991C221.973 146.838 221.77 146.723 221.551 146.654C221.332 146.585 221.1 146.563 220.872 146.589H211.246C210.528 146.589 209.839 146.875 209.331 147.383C208.823 147.892 208.537 148.582 208.537 149.301V227.026C208.537 227.745 208.823 228.435 209.331 228.943C209.839 229.452 210.528 229.737 211.246 229.737H258.425C259.144 229.737 259.833 229.452 260.341 228.943C260.849 228.435 261.134 227.745 261.134 227.026V220.237H289.393C290.824 220.193 292.23 219.84 293.512 219.201L301.727 214.792C302.152 214.594 302.516 214.284 302.78 213.896C303.043 213.508 303.197 213.056 303.225 212.587C303.246 212.085 303.122 211.588 302.868 211.154C302.614 210.72 302.241 210.368 301.793 210.141V210.141ZM245.21 216.996H238.316C238.277 216.991 238.24 216.974 238.212 216.946C238.184 216.918 238.166 216.881 238.162 216.842V208.024C238.162 208.024 238.162 207.892 238.316 207.892H245.21V216.996ZM218.339 191.36V169.779H251.179V171.983C246.015 174.341 241.718 178.257 238.888 183.181C238.64 183.598 238.509 184.074 238.509 184.559C238.509 185.044 238.64 185.52 238.888 185.937C240.043 187.945 241.449 189.797 243.073 191.448L218.339 191.36ZM241.84 184.482C243.94 180.897 246.941 177.925 250.544 175.859C254.146 173.793 258.226 172.707 262.379 172.707C266.531 172.707 270.611 173.793 274.214 175.859C277.817 177.925 280.817 180.897 282.917 184.482C280.813 188.061 277.811 191.028 274.208 193.09C270.606 195.151 266.528 196.236 262.379 196.236C258.229 196.236 254.151 195.151 250.549 193.09C246.947 191.028 243.945 188.061 241.84 184.482V184.482ZM287.058 210.802H280.451C280.054 210.848 279.688 211.039 279.422 211.338C279.157 211.636 279.01 212.022 279.01 212.422C279.01 212.822 279.157 213.208 279.422 213.507C279.688 213.805 280.054 213.996 280.451 214.042H287.058V216.996H248.536V214.064H272.764C272.992 214.091 273.224 214.069 273.443 214C273.662 213.931 273.865 213.816 274.036 213.663C274.208 213.51 274.346 213.322 274.44 213.112C274.534 212.902 274.583 212.674 274.583 212.444C274.583 212.214 274.534 211.986 274.44 211.776C274.346 211.566 274.208 211.379 274.036 211.226C273.865 211.073 273.662 210.958 273.443 210.888C273.224 210.819 272.992 210.797 272.764 210.824H248.536V207.892H287.058V210.802ZM293.798 215.211L291.948 216.225C291.424 216.48 290.868 216.666 290.296 216.776V207.958C290.867 208.061 291.423 208.239 291.948 208.487L293.798 209.501V215.211ZM297.036 213.447V211.243L299.106 212.367L297.036 213.447Z" fill="black"/>
<path d="M255.54 322.805V330.454H247.897V322.805H251.531H255.54Z" fill="#4DBBEB"/>
<path d="M251.818 280.724C252.576 280.724 253.316 280.949 253.947 281.37C254.577 281.792 255.068 282.391 255.358 283.092C255.648 283.793 255.724 284.564 255.576 285.308C255.428 286.052 255.063 286.735 254.527 287.272C253.992 287.808 253.309 288.173 252.565 288.321C251.822 288.469 251.051 288.393 250.351 288.103C249.651 287.813 249.052 287.321 248.631 286.69C248.21 286.06 247.985 285.318 247.985 284.56C247.985 283.542 248.389 282.567 249.108 281.847C249.826 281.128 250.801 280.724 251.818 280.724V280.724Z" fill="#4DBBEB"/>
<path d="M189.397 334.863L208.515 299.858L227.589 334.863L219.969 355.143H197.04L189.397 334.863Z" fill="#E2E2E2"/>
<path d="M219.969 355.143C220.985 355.143 221.96 355.547 222.679 356.266C223.397 356.985 223.801 357.961 223.801 358.978C223.801 359.995 223.397 360.971 222.679 361.69C221.96 362.41 220.985 362.814 219.969 362.814H197.04C196.024 362.814 195.049 362.41 194.33 361.69C193.611 360.971 193.208 359.995 193.208 358.978C193.208 357.961 193.611 356.985 194.33 356.266C195.049 355.547 196.024 355.143 197.04 355.143H219.969Z" fill="#FEB756"/>
<path d="M197.04 362.792H219.969V374.85H197.04V362.792Z" fill="#4DBBEB"/>
<path d="M212.348 284.736V288.373H204.705V284.736V284.559V280.724H212.348V284.559V284.736Z" fill="#4DBBEB"/>
<path d="M208.515 331.027C209.273 331.027 210.014 331.252 210.645 331.674C211.275 332.095 211.766 332.694 212.056 333.395C212.346 334.096 212.422 334.867 212.274 335.611C212.126 336.355 211.761 337.038 211.225 337.575C210.689 338.111 210.006 338.477 209.263 338.625C208.52 338.772 207.749 338.697 207.049 338.406C206.348 338.116 205.75 337.624 205.329 336.994C204.908 336.363 204.683 335.621 204.683 334.863C204.683 333.845 205.087 332.87 205.805 332.151C206.524 331.431 207.499 331.027 208.515 331.027Z" fill="#4DBBEB"/>
<path d="M169.156 322.805V330.454H161.491V322.805H165.5H169.156Z" fill="#4DBBEB"/>
<path d="M165.301 280.724C166.059 280.715 166.803 280.932 167.438 281.346C168.073 281.76 168.571 282.353 168.869 283.051C169.167 283.748 169.252 284.519 169.112 285.264C168.973 286.01 168.616 286.698 168.086 287.24C167.556 287.783 166.878 288.156 166.136 288.312C165.394 288.469 164.623 288.402 163.919 288.12C163.216 287.837 162.612 287.353 162.183 286.727C161.755 286.101 161.522 285.362 161.513 284.604C161.507 284.1 161.6 283.6 161.788 283.132C161.975 282.665 162.252 282.239 162.604 281.878C162.956 281.518 163.375 281.231 163.838 281.033C164.301 280.835 164.798 280.73 165.301 280.724V280.724Z" fill="#4DBBEB"/>
<path d="M255.518 320.887H253.315C252.619 315.397 250.877 310.091 248.183 305.258C248.06 305.038 247.895 304.845 247.698 304.688C247.5 304.532 247.273 304.417 247.031 304.348C246.789 304.28 246.535 304.259 246.285 304.289C246.035 304.318 245.793 304.397 245.573 304.52C245.353 304.643 245.16 304.808 245.004 305.006C244.848 305.204 244.732 305.43 244.664 305.673C244.595 305.916 244.575 306.169 244.605 306.42C244.634 306.67 244.712 306.912 244.835 307.132C247.209 311.393 248.777 316.056 249.461 320.887H247.963C247.455 320.887 246.967 321.089 246.608 321.449C246.249 321.808 246.047 322.296 246.047 322.805V330.454C246.047 330.963 246.249 331.45 246.608 331.81C246.967 332.17 247.455 332.372 247.963 332.372H255.606C255.857 332.372 256.107 332.322 256.339 332.226C256.572 332.129 256.783 331.988 256.961 331.81C257.139 331.632 257.28 331.421 257.376 331.188C257.472 330.955 257.522 330.706 257.522 330.454V322.805C257.522 322.545 257.47 322.289 257.368 322.05C257.266 321.811 257.117 321.596 256.93 321.417C256.743 321.237 256.521 321.098 256.278 321.007C256.035 320.916 255.777 320.875 255.518 320.887V320.887ZM253.602 328.536H249.791V324.723H253.602V328.536ZM229.528 334.775C229.526 334.738 229.526 334.701 229.528 334.664C229.54 334.614 229.54 334.561 229.528 334.51C229.538 334.452 229.538 334.392 229.528 334.334V334.157L210.189 298.932C210.02 298.634 209.775 298.386 209.479 298.214C209.183 298.042 208.847 297.951 208.504 297.951C208.162 297.951 207.826 298.042 207.53 298.214C207.234 298.386 206.989 298.634 206.819 298.932L187.723 333.937C187.715 334.003 187.715 334.069 187.723 334.135C187.713 334.194 187.713 334.253 187.723 334.312V334.466C187.737 334.501 187.737 334.541 187.723 334.576V334.885C187.734 334.928 187.734 334.974 187.723 335.017V335.149L194.617 353.445C194.051 353.713 193.536 354.079 193.097 354.526C192.414 355.214 191.917 356.066 191.653 356.999C191.389 357.933 191.365 358.918 191.585 359.864C191.806 360.809 192.262 361.682 192.912 362.403C193.561 363.123 194.383 363.667 195.3 363.982V374.453C195.3 374.961 195.502 375.449 195.861 375.809C196.221 376.169 196.708 376.371 197.216 376.371H220.145C220.396 376.371 220.646 376.321 220.878 376.225C221.111 376.128 221.322 375.987 221.5 375.809C221.678 375.631 221.819 375.419 221.915 375.187C222.011 374.954 222.061 374.705 222.061 374.453V364.004C222.889 363.72 223.641 363.253 224.264 362.638C224.911 361.996 225.396 361.207 225.677 360.339C225.958 359.471 226.027 358.549 225.878 357.648C225.729 356.748 225.367 355.897 224.822 355.165C224.276 354.434 223.564 353.844 222.744 353.445L229.638 335.149V335.017C229.627 334.974 229.627 334.928 229.638 334.885C229.648 334.841 229.648 334.796 229.638 334.752L229.528 334.775ZM219.969 336.758H224.858L218.647 353.225H198.362L192.15 336.758H197.04C197.307 336.787 197.578 336.759 197.834 336.677C198.09 336.594 198.325 336.458 198.526 336.278C198.726 336.099 198.886 335.879 198.995 335.633C199.105 335.387 199.161 335.121 199.161 334.852C199.161 334.583 199.105 334.316 198.995 334.071C198.886 333.825 198.726 333.605 198.526 333.425C198.325 333.245 198.09 333.109 197.834 333.027C197.578 332.944 197.307 332.916 197.04 332.945H192.635L206.621 307.352V329.396C205.341 329.846 204.261 330.735 203.572 331.906C202.884 333.076 202.631 334.452 202.859 335.791C203.088 337.13 203.782 338.345 204.819 339.221C205.856 340.097 207.169 340.577 208.526 340.577C209.883 340.577 211.197 340.097 212.234 339.221C213.271 338.345 213.965 337.13 214.193 335.791C214.421 334.452 214.169 333.076 213.48 331.906C212.792 330.735 211.712 329.846 210.432 329.396V307.352L224.418 332.945H220.013C219.745 332.916 219.475 332.944 219.219 333.027C218.963 333.109 218.727 333.245 218.527 333.425C218.327 333.605 218.167 333.825 218.057 334.071C217.948 334.316 217.891 334.583 217.891 334.852C217.891 335.121 217.948 335.387 218.057 335.633C218.167 335.879 218.327 336.099 218.527 336.278C218.727 336.458 218.963 336.594 219.219 336.677C219.475 336.759 219.745 336.787 220.013 336.758H219.969ZM208.515 332.945C208.894 332.945 209.265 333.057 209.58 333.268C209.895 333.479 210.141 333.778 210.286 334.129C210.431 334.479 210.469 334.865 210.395 335.237C210.321 335.609 210.138 335.951 209.87 336.219C209.602 336.487 209.261 336.67 208.889 336.744C208.517 336.818 208.132 336.78 207.782 336.635C207.432 336.489 207.133 336.244 206.922 335.928C206.712 335.613 206.599 335.242 206.599 334.863C206.599 334.354 206.801 333.866 207.16 333.507C207.52 333.147 208.007 332.945 208.515 332.945ZM198.956 372.91V364.688H218.052V372.91H198.956ZM221.334 360.301C221.156 360.482 220.943 360.626 220.709 360.725C220.474 360.823 220.223 360.874 219.969 360.874H197.04C196.532 360.874 196.044 360.672 195.685 360.312C195.326 359.953 195.124 359.465 195.124 358.956C195.135 358.451 195.341 357.97 195.698 357.613C196.054 357.255 196.535 357.05 197.04 357.038H219.969C220.346 357.039 220.715 357.15 221.03 357.36C221.344 357.569 221.589 357.867 221.735 358.215C221.881 358.564 221.921 358.948 221.85 359.319C221.778 359.69 221.599 360.031 221.334 360.301ZM171.535 304.443C171.317 304.318 171.076 304.237 170.827 304.206C170.578 304.175 170.325 304.194 170.083 304.262C169.841 304.33 169.615 304.445 169.418 304.601C169.221 304.757 169.057 304.95 168.936 305.17C166.235 310.002 164.485 315.307 163.782 320.799H161.579C161.071 320.799 160.583 321.001 160.224 321.361C159.865 321.72 159.663 322.208 159.663 322.717V330.366C159.663 330.874 159.865 331.362 160.224 331.722C160.583 332.082 161.071 332.284 161.579 332.284H169.222C169.73 332.284 170.217 332.082 170.577 331.722C170.936 331.362 171.138 330.874 171.138 330.366V322.717C171.138 322.208 170.936 321.72 170.577 321.361C170.217 321.001 169.73 320.799 169.222 320.799H167.724C168.408 315.968 169.976 311.305 172.349 307.044C172.468 306.82 172.541 306.574 172.564 306.322C172.587 306.07 172.56 305.815 172.484 305.573C172.408 305.331 172.285 305.107 172.122 304.913C171.959 304.719 171.76 304.559 171.535 304.443V304.443ZM167.129 328.448H163.319V324.723H167.129V328.448ZM237.963 292.98C234.691 290.238 231.023 288.008 227.083 286.367H246.289C246.739 287.648 247.627 288.729 248.797 289.418C249.966 290.107 251.341 290.36 252.679 290.132C254.017 289.903 255.231 289.209 256.106 288.171C256.981 287.133 257.461 285.818 257.461 284.46C257.461 283.102 256.981 281.788 256.106 280.75C255.231 279.712 254.017 279.017 252.679 278.789C251.341 278.56 249.966 278.813 248.797 279.502C247.627 280.191 246.739 281.272 246.289 282.554H214.242V280.636C214.242 280.127 214.04 279.639 213.681 279.28C213.321 278.92 212.834 278.718 212.326 278.718H204.683C204.175 278.718 203.687 278.92 203.328 279.28C202.969 279.639 202.767 280.127 202.767 280.636V282.554H170.72C170.27 281.272 169.382 280.191 168.212 279.502C167.043 278.813 165.667 278.56 164.329 278.789C162.992 279.017 161.778 279.712 160.902 280.75C160.027 281.788 159.547 283.102 159.547 284.46C159.547 285.818 160.027 287.133 160.902 288.171C161.778 289.209 162.992 289.903 164.329 290.132C165.667 290.36 167.043 290.107 168.212 289.418C169.382 288.729 170.27 287.648 170.72 286.367H189.926C185.986 288.008 182.317 290.238 179.045 292.98C178.851 293.14 178.691 293.336 178.574 293.558C178.456 293.781 178.384 294.024 178.362 294.274C178.339 294.524 178.367 294.776 178.442 295.016C178.518 295.256 178.641 295.478 178.803 295.669C178.982 295.887 179.207 296.061 179.463 296.18C179.718 296.298 179.997 296.357 180.279 296.353C180.728 296.353 181.165 296.198 181.512 295.912C187.641 291.016 194.991 287.89 202.767 286.874V288.373C202.767 288.882 202.969 289.369 203.328 289.729C203.687 290.089 204.175 290.291 204.683 290.291H212.326C212.834 290.291 213.321 290.089 213.681 289.729C214.04 289.369 214.242 288.882 214.242 288.373V286.808C222.024 287.825 229.381 290.95 235.519 295.846C235.856 296.135 236.286 296.292 236.73 296.287C237.011 296.291 237.29 296.232 237.546 296.114C237.801 295.995 238.027 295.821 238.206 295.603C238.513 295.22 238.659 294.732 238.614 294.243C238.569 293.753 238.336 293.301 237.963 292.98V292.98ZM251.707 282.642C252.086 282.642 252.457 282.754 252.772 282.965C253.087 283.176 253.333 283.475 253.478 283.826C253.623 284.176 253.661 284.562 253.587 284.934C253.513 285.306 253.33 285.647 253.062 285.916C252.794 286.184 252.453 286.366 252.081 286.44C251.709 286.514 251.324 286.476 250.974 286.331C250.624 286.186 250.325 285.94 250.114 285.625C249.903 285.31 249.791 284.939 249.791 284.559C249.791 284.298 249.844 284.039 249.947 283.799C250.05 283.559 250.201 283.342 250.391 283.163C250.58 282.983 250.805 282.844 251.05 282.755C251.296 282.665 251.557 282.627 251.817 282.642H251.707ZM165.301 286.455C164.921 286.455 164.55 286.342 164.234 286.13C163.919 285.919 163.673 285.618 163.529 285.266C163.385 284.914 163.348 284.528 163.424 284.155C163.499 283.783 163.684 283.441 163.954 283.173C164.225 282.906 164.568 282.725 164.941 282.654C165.314 282.582 165.7 282.623 166.05 282.772C166.4 282.921 166.697 283.17 166.905 283.488C167.113 283.806 167.222 284.179 167.218 284.559C167.212 285.064 167.007 285.546 166.649 285.901C166.29 286.256 165.806 286.455 165.301 286.455V286.455ZM210.41 286.455H206.599V282.642H210.41V286.455ZM242.148 297.94C241.769 297.94 241.399 298.052 241.084 298.263C240.769 298.474 240.523 298.773 240.378 299.124C240.233 299.474 240.195 299.86 240.269 300.232C240.343 300.604 240.525 300.946 240.793 301.214C241.061 301.482 241.403 301.665 241.774 301.739C242.146 301.813 242.531 301.775 242.882 301.629C243.232 301.484 243.531 301.238 243.742 300.923C243.952 300.608 244.064 300.237 244.064 299.858C244.064 299.349 243.863 298.861 243.503 298.502C243.144 298.142 242.656 297.94 242.148 297.94ZM174.86 297.94C174.481 297.94 174.111 298.052 173.796 298.263C173.481 298.474 173.235 298.773 173.09 299.124C172.945 299.474 172.907 299.86 172.981 300.232C173.055 300.604 173.237 300.946 173.505 301.214C173.773 301.482 174.115 301.665 174.487 301.739C174.858 301.813 175.244 301.775 175.594 301.629C175.944 301.484 176.243 301.238 176.454 300.923C176.664 300.608 176.777 300.237 176.777 299.858C176.78 299.605 176.732 299.354 176.637 299.12C176.541 298.886 176.4 298.674 176.222 298.495C176.043 298.316 175.831 298.175 175.597 298.08C175.363 297.984 175.113 297.937 174.86 297.94Z" fill="black"/>
<path d="M623.343 156.994H539.977L547.334 240.517L581.671 250.326L615.987 240.517L623.343 157.06V156.994Z" fill="#0277BD" stroke="black" stroke-miterlimit="10"/>
<path d="M581.671 164.356V242.721L609.137 234.873L615.26 164.334L581.671 164.356Z" fill="#039BE5"/>
<path d="M603.983 176.59H581.671V186.4H593.675L592.948 196.231H581.671V206.041H592.464L591.715 217.062L581.671 220.677V230.994L601.032 224.601L602.75 196.385L603.983 176.59Z" fill="white"/>
<path d="M581.671 176.59V186.4H559.844L559.095 176.59H581.671ZM570.394 196.231L570.879 206.041H581.671V196.231H570.394ZM571.363 210.956H561.562L562.289 224.447L581.671 230.839V220.677L571.606 217.239L571.363 210.956Z" fill="#EEEEEE"/>
<path d="M383.288 189.971V97.0575H476.125V189.971H383.288Z" fill="#FFD600" stroke="black" stroke-miterlimit="10"/>
<path d="M443.99 166.605C445.774 169.492 447.712 172.27 451.831 172.27C455.267 172.27 457.095 170.55 457.095 168.192C457.095 165.348 455.223 164.334 451.412 162.681L449.342 161.799C443.329 159.242 439.342 156.046 439.342 149.301C439.342 143.084 444.1 138.279 451.523 138.279C453.928 138.098 456.333 138.629 458.44 139.804C460.546 140.98 462.261 142.749 463.372 144.892L456.897 149.036C456.462 147.972 455.717 147.063 454.758 146.43C453.799 145.797 452.671 145.468 451.523 145.487C451.024 145.438 450.521 145.493 450.044 145.649C449.568 145.804 449.128 146.056 448.754 146.389C448.38 146.723 448.078 147.13 447.869 147.585C447.659 148.041 447.546 148.535 447.536 149.036C447.536 151.527 449.1 152.541 452.668 154.084L454.738 154.966C461.831 157.986 465.751 161.072 465.751 167.993C465.751 175.466 459.87 179.544 451.963 179.544C448.946 179.709 445.948 178.971 443.351 177.424C440.754 175.877 438.677 173.592 437.382 170.859L443.99 166.605ZM414.123 166.803C414.658 167.995 415.515 169.014 416.596 169.746C417.678 170.478 418.942 170.894 420.246 170.947C422.978 170.947 424.651 169.867 424.651 165.679V138.345H433.241V167.001C433.241 175.687 428.198 179.632 420.841 179.632C418.021 179.582 415.271 178.742 412.904 177.207C410.537 175.672 408.647 173.503 407.45 170.947L414.123 166.803Z" fill="#000001" stroke="black" stroke-miterlimit="10"/>
<path d="M612.243 289.299H688.341V364.136H612.243V289.299Z" fill="#E6EAEA"/>
<path d="M612.243 289.299H650.281V364.136H612.243V289.299Z" fill="#E6EAEA"/>
<path d="M612.243 289.299H650.281V364.136H612.243V289.299Z" fill="#CDD4D5"/>
<path d="M612.243 289.299H688.341V305.06H612.243V289.299Z" fill="#CDD4D5"/>
<path d="M612.243 289.299H650.281V305.06H612.243V289.299Z" fill="#687F82"/>
<path d="M676.513 295.78H662.086C661.759 295.78 661.445 295.649 661.214 295.418C660.983 295.186 660.853 294.872 660.853 294.545C660.853 294.218 660.983 293.904 661.214 293.672C661.445 293.441 661.759 293.311 662.086 293.311H676.513C676.84 293.311 677.154 293.441 677.385 293.672C677.616 293.904 677.746 294.218 677.746 294.545C677.746 294.872 677.616 295.186 677.385 295.418C677.154 295.649 676.84 295.78 676.513 295.78ZM683.077 295.78H680.455C680.128 295.78 679.815 295.649 679.583 295.418C679.352 295.186 679.222 294.872 679.222 294.545C679.222 294.218 679.352 293.904 679.583 293.672C679.815 293.441 680.128 293.311 680.455 293.311H683.077C683.404 293.311 683.717 293.441 683.949 293.672C684.18 293.904 684.31 294.218 684.31 294.545C684.31 294.872 684.18 295.186 683.949 295.418C683.717 295.649 683.404 295.78 683.077 295.78Z" fill="white"/>
<path d="M651.602 301.136C653.78 301.136 655.545 299.369 655.545 297.19C655.545 295.011 653.78 293.245 651.602 293.245C649.425 293.245 647.66 295.011 647.66 297.19C647.66 299.369 649.425 301.136 651.602 301.136Z" fill="#44AACC" fill-opacity="0.6"/>
<path d="M637.175 301.136C639.353 301.136 641.118 299.369 641.118 297.19C641.118 295.011 639.353 293.245 637.175 293.245C634.998 293.245 633.233 295.011 633.233 297.19C633.233 299.369 634.998 301.136 637.175 301.136Z" fill="#FF8C12"/>
<path d="M622.749 301.136C624.926 301.136 626.691 299.369 626.691 297.19C626.691 295.011 624.926 293.245 622.749 293.245C620.571 293.245 618.806 295.011 618.806 297.19C618.806 299.369 620.571 301.136 622.749 301.136Z" fill="#F0353D"/>
<path d="M633.233 348.375C632.625 348.378 632.038 348.159 631.581 347.758L619.115 336.604C618.865 336.372 618.665 336.093 618.525 335.782C618.385 335.472 618.308 335.137 618.3 334.796C618.297 334.455 618.364 334.117 618.497 333.802C618.629 333.488 618.825 333.203 619.07 332.967L631.537 321.151C632.01 320.704 632.641 320.463 633.292 320.482C633.942 320.501 634.559 320.777 635.006 321.251C635.453 321.724 635.693 322.356 635.675 323.007C635.656 323.658 635.38 324.275 634.907 324.723L624.401 334.708L634.863 344.077C635.35 344.513 635.645 345.124 635.682 345.777C635.719 346.43 635.496 347.071 635.061 347.56C634.832 347.818 634.55 348.025 634.235 348.165C633.92 348.306 633.578 348.377 633.233 348.375V348.375ZM667.328 348.375C667.936 348.378 668.523 348.159 668.98 347.758L681.447 336.604C681.696 336.372 681.896 336.093 682.036 335.782C682.176 335.472 682.253 335.137 682.262 334.796C682.264 334.455 682.197 334.117 682.064 333.802C681.932 333.488 681.737 333.203 681.491 332.967L669.024 321.151C668.543 320.75 667.927 320.548 667.302 320.584C666.677 320.62 666.089 320.893 665.658 321.348C665.226 321.802 664.984 322.403 664.979 323.03C664.974 323.657 665.208 324.262 665.632 324.723L676.161 334.708L665.698 344.121C665.211 344.557 664.917 345.168 664.879 345.821C664.842 346.474 665.066 347.115 665.5 347.604C665.733 347.854 666.017 348.052 666.332 348.185C666.647 348.318 666.986 348.383 667.328 348.375V348.375ZM643.717 348.375C643.284 348.372 642.86 348.258 642.484 348.045C641.923 347.717 641.514 347.182 641.345 346.555C641.176 345.928 641.26 345.259 641.58 344.694L654.047 323.025C654.374 322.458 654.913 322.044 655.545 321.875C656.177 321.705 656.85 321.794 657.417 322.121C657.983 322.449 658.397 322.988 658.566 323.621C658.736 324.253 658.647 324.927 658.32 325.494L645.853 347.141C645.637 347.516 645.325 347.828 644.95 348.045C644.575 348.261 644.15 348.375 643.717 348.375V348.375Z" fill="#F0353D"/>
<path d="M688.671 287.91H612.419C612.095 287.91 611.785 288.037 611.554 288.264C611.324 288.491 611.191 288.799 611.185 289.122V364.07C611.185 364.398 611.315 364.712 611.547 364.943C611.778 365.175 612.092 365.305 612.419 365.305H688.671C688.998 365.305 689.312 365.175 689.543 364.943C689.775 364.712 689.904 364.398 689.904 364.07V289.122C689.899 288.799 689.766 288.491 689.535 288.264C689.305 288.037 688.994 287.91 688.671 287.91V287.91ZM687.261 290.533V303.649H613.806V290.533H687.261ZM613.806 362.726V306.272H687.261V362.726H613.806Z" fill="black"/>
<path d="M651.602 302.348C652.626 302.348 653.627 302.045 654.478 301.475C655.329 300.906 655.992 300.097 656.384 299.151C656.776 298.204 656.878 297.163 656.679 296.158C656.479 295.153 655.986 294.23 655.262 293.505C654.538 292.781 653.616 292.287 652.612 292.088C651.608 291.888 650.567 291.99 649.621 292.382C648.676 292.774 647.867 293.438 647.298 294.29C646.73 295.142 646.426 296.144 646.426 297.168C646.426 297.849 646.56 298.522 646.82 299.151C647.08 299.779 647.461 300.35 647.942 300.831C648.423 301.312 648.993 301.694 649.621 301.954C650.249 302.215 650.922 302.348 651.602 302.348V302.348ZM651.602 294.479C652.139 294.479 652.663 294.639 653.109 294.938C653.555 295.236 653.903 295.661 654.107 296.158C654.311 296.655 654.364 297.201 654.257 297.727C654.151 298.254 653.891 298.737 653.51 299.115C653.129 299.494 652.644 299.75 652.117 299.852C651.59 299.954 651.045 299.898 650.55 299.689C650.055 299.48 649.634 299.129 649.339 298.681C649.044 298.232 648.889 297.705 648.893 297.168C648.893 296.813 648.963 296.462 649.1 296.134C649.236 295.806 649.436 295.509 649.688 295.259C649.94 295.009 650.238 294.811 650.567 294.677C650.896 294.543 651.247 294.476 651.602 294.479V294.479ZM637.264 302.348C638.288 302.353 639.291 302.053 640.145 301.486C640.999 300.92 641.666 300.112 642.061 299.166C642.456 298.22 642.562 297.178 642.365 296.171C642.168 295.165 641.676 294.24 640.953 293.513C640.23 292.787 639.308 292.291 638.303 292.089C637.299 291.888 636.257 291.989 635.31 292.38C634.363 292.772 633.553 293.436 632.983 294.288C632.414 295.14 632.11 296.143 632.11 297.168C632.11 298.538 632.652 299.853 633.618 300.823C634.584 301.794 635.895 302.343 637.264 302.348ZM637.264 294.479C637.801 294.475 638.328 294.631 638.777 294.927C639.226 295.223 639.576 295.646 639.784 296.142C639.992 296.639 640.047 297.186 639.944 297.714C639.84 298.242 639.581 298.727 639.201 299.107C638.821 299.488 638.336 299.747 637.809 299.851C637.281 299.954 636.735 299.899 636.239 299.691C635.743 299.483 635.32 299.132 635.024 298.683C634.728 298.234 634.572 297.706 634.576 297.168C634.582 296.457 634.867 295.776 635.37 295.273C635.873 294.77 636.553 294.485 637.264 294.479V294.479ZM622.727 302.348C623.751 302.353 624.754 302.053 625.608 301.486C626.462 300.92 627.129 300.112 627.524 299.166C627.92 298.22 628.025 297.178 627.828 296.171C627.631 295.165 627.139 294.24 626.416 293.513C625.693 292.787 624.771 292.291 623.767 292.089C622.762 291.888 621.72 291.989 620.773 292.38C619.826 292.772 619.016 293.436 618.447 294.288C617.877 295.14 617.573 296.143 617.573 297.168C617.573 298.538 618.115 299.853 619.081 300.823C620.047 301.794 621.358 302.343 622.727 302.348V302.348ZM622.727 294.479C623.263 294.479 623.788 294.639 624.234 294.938C624.68 295.236 625.027 295.661 625.232 296.158C625.436 296.655 625.488 297.201 625.382 297.727C625.276 298.254 625.016 298.737 624.634 299.115C624.253 299.494 623.769 299.75 623.242 299.852C622.715 299.954 622.169 299.898 621.675 299.689C621.18 299.48 620.758 299.129 620.463 298.681C620.168 298.232 620.013 297.705 620.018 297.168C620.023 296.453 620.311 295.769 620.819 295.265C621.326 294.762 622.012 294.479 622.727 294.479ZM636.911 323.047C636.925 322.561 636.843 322.077 636.669 321.623C636.495 321.169 636.233 320.754 635.898 320.402C635.566 320.049 635.168 319.765 634.725 319.569C634.283 319.372 633.805 319.265 633.321 319.256C632.341 319.232 631.391 319.597 630.678 320.27L618.233 332.085C617.855 332.428 617.553 332.847 617.346 333.314C617.139 333.781 617.033 334.286 617.033 334.796C617.033 335.307 617.139 335.812 617.346 336.279C617.553 336.746 617.855 337.165 618.233 337.508L630.7 348.662C631.374 349.276 632.255 349.615 633.167 349.61C633.914 349.611 634.643 349.384 635.258 348.961C635.874 348.537 636.345 347.935 636.611 347.236C636.876 346.538 636.923 345.775 636.744 345.049C636.566 344.323 636.171 343.669 635.612 343.173L626.141 334.686L635.7 325.626C636.429 324.961 636.865 324.034 636.911 323.047V323.047ZM634.07 323.841L623.542 333.805C623.42 333.924 623.323 334.066 623.257 334.223C623.191 334.38 623.157 334.549 623.157 334.719C623.157 334.89 623.191 335.059 623.257 335.216C623.323 335.373 623.42 335.515 623.542 335.634L634.026 345.003C634.256 345.234 634.385 345.547 634.385 345.873C634.385 346.2 634.256 346.513 634.026 346.744C633.914 346.873 633.775 346.976 633.619 347.045C633.463 347.113 633.293 347.146 633.123 347.141C632.816 347.14 632.52 347.031 632.286 346.832L619.841 335.678C619.709 335.568 619.603 335.429 619.531 335.273C619.459 335.117 619.422 334.947 619.423 334.774C619.422 334.606 619.454 334.44 619.519 334.285C619.583 334.129 619.678 333.989 619.797 333.871L632.264 322.055C632.495 321.832 632.802 321.706 633.123 321.703C633.45 321.718 633.758 321.86 633.982 322.099C634.094 322.216 634.181 322.355 634.238 322.506C634.295 322.658 634.32 322.819 634.312 322.981C634.331 323.133 634.32 323.288 634.278 323.436C634.236 323.583 634.166 323.721 634.07 323.841V323.841ZM682.328 332.085L669.861 320.27C669.151 319.598 668.204 319.235 667.227 319.262C666.25 319.289 665.324 319.703 664.652 320.413C663.98 321.123 663.618 322.072 663.645 323.049C663.672 324.027 664.086 324.954 664.795 325.626L674.354 334.686L664.883 343.173C664.324 343.669 663.929 344.323 663.751 345.049C663.572 345.775 663.619 346.538 663.884 347.236C664.15 347.935 664.621 348.537 665.237 348.961C665.852 349.384 666.581 349.611 667.328 349.61C668.24 349.615 669.121 349.276 669.795 348.662L682.262 337.508C682.64 337.165 682.942 336.746 683.149 336.279C683.356 335.812 683.463 335.307 683.463 334.796C683.463 334.286 683.356 333.781 683.149 333.314C682.942 332.847 682.64 332.428 682.262 332.085H682.328ZM681.028 334.774C681.029 334.947 680.992 335.117 680.92 335.273C680.848 335.429 680.742 335.568 680.61 335.678L668.099 346.832C667.875 347.033 667.585 347.143 667.284 347.141C667.114 347.146 666.944 347.113 666.788 347.045C666.632 346.976 666.493 346.873 666.381 346.744C666.151 346.513 666.022 346.2 666.022 345.873C666.022 345.547 666.151 345.234 666.381 345.003L676.843 335.634C676.972 335.521 677.076 335.382 677.148 335.226C677.22 335.071 677.259 334.902 677.262 334.73C677.263 334.559 677.231 334.389 677.167 334.23C677.103 334.071 677.008 333.927 676.887 333.805L666.359 323.841C666.129 323.61 666 323.296 666 322.97C666 322.644 666.129 322.331 666.359 322.099C666.469 321.974 666.605 321.874 666.757 321.806C666.909 321.737 667.074 321.702 667.24 321.703C667.4 321.701 667.558 321.731 667.705 321.792C667.853 321.852 667.987 321.942 668.099 322.055L680.544 333.871C680.67 333.984 680.771 334.124 680.84 334.279C680.908 334.435 680.942 334.604 680.94 334.774H681.028ZM658.034 321.063C657.186 320.575 656.18 320.442 655.234 320.694C654.289 320.946 653.482 321.562 652.99 322.408L640.523 344.121C640.037 344.972 639.908 345.981 640.164 346.927C640.42 347.874 641.04 348.68 641.889 349.169C642.447 349.483 643.076 349.649 643.717 349.654C644.366 349.656 645.003 349.486 645.564 349.161C646.126 348.836 646.59 348.367 646.911 347.802L659.377 326.133C659.621 325.716 659.78 325.254 659.845 324.774C659.909 324.295 659.878 323.807 659.753 323.34C659.628 322.872 659.412 322.434 659.117 322.051C658.822 321.668 658.453 321.347 658.034 321.107V321.063ZM657.241 324.877L644.796 346.524C644.636 346.816 644.366 347.032 644.045 347.125C643.725 347.218 643.381 347.18 643.089 347.02C642.797 346.859 642.581 346.588 642.488 346.268C642.395 345.948 642.433 345.604 642.594 345.311L655.06 323.642C655.222 323.36 655.488 323.153 655.802 323.066C656.115 322.98 656.45 323.02 656.734 323.18C657.012 323.349 657.216 323.616 657.307 323.929C657.361 324.083 657.384 324.247 657.372 324.41C657.361 324.573 657.316 324.732 657.241 324.877V324.877Z" fill="black"/>
<path d="M103.013 574.718C103.013 580.295 80.4591 584.814 52.5969 584.814C24.7347 584.814 2.20258 580.295 2.20258 574.718C2.20258 569.141 24.7567 564.556 52.5969 564.556C80.4371 564.556 103.013 569.075 103.013 574.652" fill="#59747F"/>
<path d="M103.013 574.718C103.013 580.295 80.4591 584.814 52.5969 584.814C24.7347 584.814 2.20258 580.295 2.20258 574.718C2.20258 569.141 24.7567 564.556 52.5969 564.556C80.4371 564.556 103.013 569.075 103.013 574.652" stroke="#0E1A32" stroke-width="2" stroke-miterlimit="10"/>
<path d="M116.955 584.13C115.549 582.281 113.733 580.782 111.65 579.753C109.567 578.725 107.274 578.193 104.952 578.201H101.119L99.2469 588.275H104.952C105.726 588.274 106.491 588.452 107.185 588.796C107.879 589.14 108.485 589.639 108.954 590.256C109.423 590.873 109.744 591.59 109.89 592.352C110.036 593.113 110.004 593.898 109.797 594.645L106.119 608.202C103.898 616.3 98.8093 623.312 91.8023 627.931L89.4676 640.496C95.8572 637.931 101.568 633.923 106.153 628.783C110.738 623.644 114.073 617.513 115.898 610.869L119.598 597.313C120.227 595.059 120.321 592.69 119.874 590.394C119.426 588.098 118.45 585.938 117.021 584.086" fill="#D9AD89"/>
<path d="M116.955 584.13C115.549 582.281 113.733 580.782 111.65 579.753C109.567 578.725 107.274 578.193 104.952 578.201H101.119L99.2469 588.275H104.952C105.726 588.274 106.491 588.452 107.185 588.796C107.879 589.14 108.485 589.639 108.954 590.256C109.423 590.873 109.744 591.59 109.89 592.352C110.036 593.113 110.004 593.898 109.797 594.645L106.119 608.202C103.898 616.3 98.8093 623.312 91.8023 627.931L89.4676 640.496C95.8572 637.931 101.568 633.923 106.153 628.783C110.738 623.644 114.073 617.513 115.898 610.869L119.598 597.313C120.227 595.059 120.321 592.69 119.874 590.394C119.426 588.098 118.45 585.938 117.021 584.086" stroke="#0E1A32" stroke-width="2" stroke-miterlimit="10"/>
<path d="M52.5969 582.61C24.7567 582.61 2.20258 578.091 2.20258 572.514L17.3121 653.237C17.3121 658.814 33.1264 663.333 52.5529 663.333C71.9793 663.333 87.7936 658.814 87.7936 653.237L102.903 572.514C102.903 578.091 80.349 582.61 52.4868 582.61" fill="#D9AD89"/>
<path d="M52.5969 582.61C24.7567 582.61 2.20258 578.091 2.20258 572.514L17.3121 653.237C17.3121 658.814 33.1264 663.333 52.5529 663.333C71.9793 663.333 87.7936 658.814 87.7936 653.237L102.903 572.514C102.903 578.091 80.349 582.61 52.4868 582.61" stroke="#0E1A32" stroke-width="2" stroke-miterlimit="10"/>
<path d="M52.5969 582.191C22.7744 582.191 5.81477 577.275 4.69147 574.497C5.81477 571.985 22.7744 567.047 52.5969 567.047C82.4194 567.047 99.4011 571.985 100.524 574.74C99.4011 577.275 82.4415 582.191 52.5969 582.191Z" fill="#C7FFFD" stroke="#0E1A32" stroke-width="2" stroke-miterlimit="10"/>
<path d="M13.4136 578.465C26.2835 581.241 39.435 582.491 52.5969 582.191C65.7654 582.442 78.9193 581.184 91.8023 578.443C78.9284 575.639 65.7696 574.359 52.5969 574.63C39.4357 574.378 26.289 575.636 13.4136 578.377" fill="#56473F"/>
<path d="M13.4136 578.465C26.2835 581.241 39.435 582.491 52.5969 582.191C65.7654 582.442 78.9193 581.184 91.8023 578.443C78.9284 575.639 65.7696 574.359 52.5969 574.63C39.4357 574.378 26.289 575.636 13.4136 578.377" stroke="#0E1A32" stroke-width="2" stroke-miterlimit="10"/>
<path d="M2.20258 661.547H826" stroke="#56473F" stroke-width="4" stroke-miterlimit="10"/>
</svg>
