<svg width="106" height="91" viewBox="0 0 106 91" fill="none" xmlns="http://www.w3.org/2000/svg">
<path d="M103.973 9.16505C100.529 12.6087 92.1976 18.163 78.9784 15.1637C71.8689 13.6085 65.2037 13.4974 60.9824 13.6085C60.8713 13.6085 60.7603 13.4974 60.7603 13.3863C61.0935 9.83157 60.8713 5.49921 59.3161 1.05577C59.094 0.389257 58.0942 0.278171 57.7609 0.944687C55.8725 4.8327 50.6514 14.1639 42.8754 17.8298C40.5426 18.9406 38.5431 20.4958 37.0989 22.4954C35.5437 24.606 33.4331 26.9388 30.5449 29.1605C26.879 31.9377 23.2132 33.3818 20.325 34.2705C18.2143 34.937 17.3256 37.3809 18.5476 39.1583C20.2139 41.7132 22.991 44.7126 26.9901 46.0456C27.2123 46.1567 27.3234 45.9345 27.3234 45.7123C26.9901 44.7126 26.2125 42.4908 26.3236 40.9356C26.3236 40.7135 26.5458 40.6024 26.7679 40.8246C27.5455 41.4911 29.5451 42.9352 33.0998 42.9352C33.322 42.9352 33.4331 42.6019 33.2109 42.4908C32.4333 41.8243 31.2114 40.6024 30.9892 38.9361C30.9892 38.7139 31.2114 38.6028 31.3225 38.7139C32.2112 39.2694 34.2107 40.4913 37.21 40.4913C37.4322 40.4913 37.5433 40.158 37.3211 40.047C36.5435 39.4915 35.4326 38.4918 35.5437 36.3811C35.5437 36.27 35.6548 36.1589 35.7659 36.1589C36.7657 36.0479 41.3202 35.7146 45.6526 37.0476C45.8747 37.1587 45.8747 37.3809 45.6526 37.492C44.7639 37.9363 43.7641 38.3807 42.7643 38.9361C40.2093 40.3802 38.3209 41.9354 36.7657 43.3795C36.3213 43.7128 35.5437 44.2682 34.4329 44.6015C33.0998 44.9347 31.8779 44.7126 31.1003 44.3793C30.8781 44.2682 30.656 44.4904 30.767 44.7126C31.1003 45.268 31.7668 46.1567 32.5444 46.4899C33.7664 47.0454 31.1003 47.823 28.9897 47.3786C27.4345 47.1565 25.8793 46.4899 25.2127 46.2678C24.9906 46.1567 24.7684 46.3789 24.8795 46.601C25.3238 47.823 26.5458 50.9334 29.9894 52.1553C30.3227 52.2664 30.5449 52.3775 30.8781 52.3775C33.5442 52.9329 36.4324 51.5999 37.6544 49.156C37.6544 49.0449 37.7655 48.9338 37.7655 48.8228C37.7655 48.8228 38.8763 46.7121 41.3202 44.8237C43.8752 42.8241 48.9851 41.1578 55.317 41.1578H55.4281C58.6496 43.0463 60.8713 46.8232 60.427 50.6001C60.0937 52.8218 58.9829 54.7103 57.872 56.4877C54.5394 61.8198 46.6523 63.1528 40.9869 64.8191C36.2103 66.1522 31.3225 67.3741 26.4347 68.1517C22.4356 68.8182 18.5476 69.3737 14.7707 71.151C9.77179 73.706 5.66161 77.7051 2.88446 82.5929C1.7736 84.5924 0.884908 86.8142 0.218392 89.0359C-0.00377968 90.0356 0.995994 90.8133 1.88468 90.3689C12.8822 84.1481 19.8806 86.2587 39.0985 87.0363C56.0946 87.5918 63.8707 79.3714 65.9813 76.5942C66.0924 76.3721 66.5367 76.5942 66.4256 76.8164C65.4259 80.3712 61.9822 85.1479 59.9827 87.7028C59.5383 88.2583 60.0937 89.0359 60.7603 88.8137C70.758 84.8146 76.6456 69.1515 78.0897 64.9302C78.2008 64.708 78.534 64.708 78.534 65.0413C78.8673 69.818 76.8677 75.3723 75.3125 79.0381C74.9793 79.7046 75.8679 80.2601 76.3123 79.7047C93.0863 60.0424 82.6442 44.1571 79.867 40.6024C79.756 40.3802 79.9781 40.158 80.2003 40.2691C84.5326 42.2687 87.9763 47.3786 89.7537 50.7112C90.198 51.3777 91.1978 51.1556 91.1978 50.2669C91.0867 47.4897 90.5313 44.6015 89.4204 42.0465C88.5318 40.158 87.4209 38.4918 85.8657 37.0476C84.3105 35.4924 82.422 34.3816 80.4225 33.3818C79.0894 32.7153 77.7564 31.9377 76.4234 31.049C75.7569 30.6046 75.0903 30.1603 74.5349 29.716C74.0906 29.3827 73.5351 29.0494 73.0908 28.7162C72.8686 28.494 73.0908 28.2718 73.313 28.2718C73.7573 28.3829 74.2017 28.494 74.5349 28.6051C75.2014 28.8273 75.7569 28.9384 76.3123 29.1605C77.5342 29.6049 78.6451 30.0492 79.867 30.3825C81.2001 30.8268 82.5331 31.1601 83.8661 31.4933C93.3085 33.8261 98.7517 31.049 101.307 28.9384C101.751 28.494 101.418 27.8275 100.751 27.9386C96.0856 28.9384 88.1985 27.161 82.5331 24.606C77.6453 22.1621 70.9802 20.718 68.3141 20.2736C68.0919 20.2736 68.0919 19.8293 68.3141 19.8293C71.6467 19.385 76.3123 20.8291 79.0894 21.3845C85.8657 22.8286 93.0863 22.2732 99.9736 17.4965C103.195 15.2748 104.639 12.1644 105.084 9.94265C105.417 9.16505 104.528 8.60962 103.973 9.16505ZM45.7636 23.273L45.5415 24.3838C45.3193 25.1614 44.875 25.939 44.0974 26.2723L41.098 27.7164C40.2093 28.1608 39.5428 27.0499 40.2093 26.3834L44.3195 22.4954C44.986 21.8289 45.9858 22.3843 45.7636 23.273Z" fill="#C36A2D"/>
</svg>
